<svg width="1270" height="916" xmlns="http://www.w3.org/2000/svg" xmlns:xlink="http://www.w3.org/1999/xlink" xml:space="preserve" overflow="hidden"><g transform="translate(-1145 -779)"><g><path d="M1481.83 917.281C1618.41 1070.27 1622.41 1300.19 1491.22 1457.83" stroke="#A9A8FF" stroke-width="27.5" stroke-linecap="butt" stroke-linejoin="miter" stroke-miterlimit="8" stroke-opacity="1" fill="none" fill-rule="evenodd"/><path d="M1442.25 983.085C1538.71 1107.34 1537.82 1281.4 1440.1 1404.66" stroke="#A897FF" stroke-width="27.5" stroke-linecap="butt" stroke-linejoin="miter" stroke-miterlimit="8" stroke-opacity="1" fill="none" fill-rule="evenodd"/><path d="M1400.29 1049.13C1458.18 1140.58 1455.62 1257.83 1393.79 1346.67" stroke="#B38CFF" stroke-width="27.5" stroke-linecap="butt" stroke-linejoin="miter" stroke-miterlimit="8" stroke-opacity="1" fill="none" fill-rule="evenodd"/><path d="M1349.12 1107.09C1375.66 1161.38 1375.62 1224.83 1349.03 1279.08" stroke="#B96EFF" stroke-width="27.5" stroke-linecap="butt" stroke-linejoin="miter" stroke-miterlimit="8" stroke-opacity="1" fill="none" fill-rule="evenodd"/><path d="M1708 911 1708 1494.06 2204 1678 2204 1056.76 1708 911Z" stroke="#B96EFF" stroke-width="27.5" stroke-linecap="round" stroke-linejoin="round" stroke-miterlimit="10" stroke-opacity="1" fill="none" fill-rule="evenodd"/><path d="M0 0 192.5 145.773" stroke="#B96EFF" stroke-width="27.5" stroke-linecap="round" stroke-linejoin="round" stroke-miterlimit="10" stroke-opacity="1" fill="none" fill-rule="evenodd" transform="matrix(1 0 0 -1 2204 1056.77)"/><path d="M0 0 317.053 113.595" stroke="#B96EFF" stroke-width="27.5" stroke-linecap="round" stroke-linejoin="round" stroke-miterlimit="10" stroke-opacity="1" fill="none" fill-rule="evenodd" transform="matrix(1 0 0 -1 1708 910.595)"/><path d="M0 0 192.5 175.312" stroke="#B96EFF" stroke-width="27.5" stroke-linecap="round" stroke-linejoin="round" stroke-miterlimit="10" stroke-opacity="1" fill="none" fill-rule="evenodd" transform="matrix(1 0 0 -1 2204 1678.31)"/><path d="M0 0 0.000360892 591.732" stroke="#B96EFF" stroke-width="27.5" stroke-linecap="round" stroke-linejoin="round" stroke-miterlimit="10" stroke-opacity="1" fill="none" fill-rule="evenodd" transform="matrix(1 0 0 -1 2396 1502.73)"/><path d="M2396.25 910.595 2025 797" stroke="#B96EFF" stroke-width="27.5" stroke-linecap="round" stroke-linejoin="round" stroke-miterlimit="10" stroke-opacity="1" fill="none" fill-rule="evenodd"/><path d="M13.3634-3.23755 26.3136 50.2161C28.1017 57.5965 23.5682 65.029 16.1877 66.8171 8.80734 68.6051 1.37483 64.0716-0.413215 56.6912L-13.3634 3.23755C-15.1515-4.14286-10.618-11.5754-3.23755-13.3634 4.14286-15.1515 11.5754-10.618 13.3634-3.23755ZM39.2638 103.67 40.2907 107.908C42.0787 115.289 37.5452 122.721 30.1648 124.509 22.7844 126.297 15.3519 121.764 13.5639 114.383L12.537 110.145C10.7489 102.764 15.2824 95.3319 22.6629 93.5439 30.0433 91.7558 37.4758 96.2893 39.2638 103.67Z" fill="#A9A8FF" fill-rule="nonzero" fill-opacity="1" transform="matrix(-1 0 0 1 1998.93 1065)"/><path d="M2016.24 1043.99 2060.27 1076.96C2066.35 1081.51 2067.59 1090.12 2063.03 1096.2 2058.48 1102.28 2049.87 1103.52 2043.79 1098.97L1999.76 1066.01C1993.68 1061.46 1992.44 1052.84 1996.99 1046.76 2001.54 1040.68 2010.16 1039.44 2016.24 1043.99ZM2104.3 1109.92 2127.95 1127.63C2134.03 1132.18 2135.26 1140.8 2130.71 1146.87 2126.16 1152.95 2117.54 1154.19 2111.47 1149.64L2087.81 1131.93C2081.74 1127.38 2080.5 1118.76 2085.05 1112.69 2089.6 1106.61 2098.22 1105.37 2104.3 1109.92Z" fill="#A9A8FF" fill-rule="nonzero" fill-opacity="1"/><path d="M3.89484-13.1868 56.6422 2.39253 56.6422 2.39253C63.9251 4.54359 68.0853 12.1913 65.9342 19.4742 63.7831 26.7571 56.1354 30.9173 48.8525 28.7662L-3.89484 13.1868C-11.1777 11.0358-15.3379 3.38805-13.1868-3.89484-11.0358-11.1777-3.38805-15.3379 3.89484-13.1868ZM109.39 17.9719 139.676 26.9173C146.959 29.0684 151.119 36.7161 148.968 43.999 146.817 51.2819 139.169 55.4421 131.887 53.291L101.6 44.3456C94.317 42.1945 90.1568 34.5468 92.3079 27.2639 94.4589 19.981 102.107 15.8208 109.39 17.9719Z" fill="#A9A8FF" fill-rule="nonzero" fill-opacity="1" transform="matrix(1 0 0 -1 1981 1186.1)"/><path d="M7.31818-11.6407 53.8811 17.632 53.8811 17.632C60.3101 21.6737 62.2454 30.1619 58.2037 36.5909 54.162 43.0199 45.6738 44.9552 39.2448 40.9135L-7.31818 11.6407C-13.7472 7.59901-15.6825-0.88918-11.6407-7.31818-7.59901-13.7472 0.88918-15.6825 7.31818-11.6407ZM100.444 46.9047 123.035 61.1072C129.464 65.1489 131.4 73.6371 127.358 80.0661 123.316 86.4951 114.828 88.4304 108.399 84.3887L85.8077 70.1862C79.3787 66.1445 77.4434 57.6563 81.4851 51.2273 85.5269 44.7983 94.0151 42.863 100.444 46.9047Z" fill="#A9A8FF" fill-rule="nonzero" fill-opacity="1" transform="matrix(1 0 0 -1 1873 1127.75)"/><path d="M1879.12 1129.69 1928.38 1154.15C1935.18 1157.53 1937.95 1165.78 1934.57 1172.58 1931.19 1179.38 1922.94 1182.16 1916.14 1178.78L1866.88 1154.31C1860.08 1150.94 1857.31 1142.68 1860.69 1135.88 1864.06 1129.08 1872.32 1126.31 1879.12 1129.69Z" fill="#A9A8FF" fill-rule="nonzero" fill-opacity="1"/><path d="M13.7376-0.583738 16.0726 54.3667C16.3949 61.9537 10.5058 68.3656 2.91869 68.688-4.66838 69.0104-11.0803 63.1212-11.4026 55.5341L-13.7376 0.583738C-14.06-7.00333-8.17081-13.4152-0.583738-13.7376 7.00333-14.06 13.4152-8.17081 13.7376-0.583738ZM18.4075 109.317 20.7425 164.268C21.0648 171.855 15.1757 178.266 7.58859 178.589 0.00152604 178.911-6.41036 173.022-6.73275 165.435L-9.0677 110.485C-9.39009 102.897-3.5009 96.4856 4.08617 96.1632 11.6732 95.8408 18.0851 101.73 18.4075 109.317Z" fill="#A9A8FF" fill-rule="nonzero" fill-opacity="1" transform="matrix(-1 0 0 1 1866.59 1145)"/><path d="M11.5884-7.40074 41.1914 38.953C45.2787 45.3531 43.4038 53.8548 37.0037 57.9421 30.6036 62.0294 22.1018 60.1546 18.0145 53.7544L-11.5884 7.40074C-15.6757 1.00062-13.8008-7.50111-7.40074-11.5884-1.00062-15.6757 7.50111-13.8008 11.5884-7.40074ZM70.7943 85.3067 100.397 131.66 100.397 131.66C104.485 138.061 102.61 146.562 96.2096 150.65 89.8095 154.737 81.3077 152.862 77.2204 146.462L77.2204 146.462 47.6175 100.108C43.5301 93.708 45.405 85.2063 51.8051 81.119 58.2053 77.0317 66.707 78.9066 70.7943 85.3067Z" fill="#A9A8FF" fill-rule="nonzero" fill-opacity="1" transform="matrix(-1 0 0 1 1965.24 1193)"/><path d="M1984.76 1190.87 2005.26 1241.91 2005.26 1241.91C2008.1 1248.95 2004.68 1256.96 1997.63 1259.79 1990.59 1262.62 1982.58 1259.21 1979.75 1252.16L1959.24 1201.13C1956.41 1194.08 1959.83 1186.07 1966.87 1183.24 1973.92 1180.41 1981.93 1183.83 1984.76 1190.87ZM2025.77 1292.94 2036.32 1319.21 2036.32 1319.21C2039.15 1326.25 2035.74 1334.26 2028.69 1337.09 2021.64 1339.92 2013.64 1336.51 2010.8 1329.46L2000.25 1303.2C1997.42 1296.15 2000.84 1288.14 2007.88 1285.31 2014.93 1282.48 2022.94 1285.9 2025.77 1292.94Z" fill="#A9A8FF" fill-rule="nonzero" fill-opacity="1"/><path d="M12.2173-6.30877 37.4524 42.5603C40.9366 49.3078 38.2913 57.6021 31.5439 61.0864 24.7965 64.5706 16.5021 61.9253 13.0178 55.1779L-12.2173 6.30877C-15.7015-0.438643-13.0562-8.73304-6.30877-12.2173 0.438643-15.7015 8.73304-13.0562 12.2173-6.30877ZM62.6875 91.4295 87.9226 140.299C91.4068 147.046 88.7615 155.34 82.0141 158.825 75.2666 162.309 66.9722 159.664 63.488 152.916L38.2529 104.047C34.7687 97.2996 37.414 89.0052 44.1614 85.5209 50.9088 82.0367 59.2032 84.682 62.6875 91.4295Z" fill="#A9A8FF" fill-rule="nonzero" fill-opacity="1" transform="matrix(-1 0 0 1 2119.92 1153)"/><path d="M2140.69 1154.73 2145.75 1209.5C2146.45 1217.06 2140.89 1223.76 2133.33 1224.46 2125.76 1225.16 2119.07 1219.59 2118.37 1212.03L2113.31 1157.27C2112.61 1149.7 2118.17 1143.01 2125.74 1142.31 2133.3 1141.61 2139.99 1147.17 2140.69 1154.73ZM2150.81 1264.27 2155.87 1319.04C2156.57 1326.6 2151.01 1333.29 2143.45 1333.99 2135.88 1334.69 2129.19 1329.13 2128.49 1321.57L2123.43 1266.8C2122.73 1259.24 2128.29 1252.54 2135.86 1251.84 2143.42 1251.14 2150.11 1256.71 2150.81 1264.27Z" fill="#A9A8FF" fill-rule="nonzero" fill-opacity="1"/><path d="M2038.2 1321.27 2089.11 1342.09C2096.14 1344.96 2099.51 1352.99 2096.64 1360.02 2093.76 1367.05 2085.74 1370.42 2078.71 1367.54L2027.8 1346.73C2020.77 1343.85 2017.4 1335.83 2020.27 1328.8 2023.15 1321.77 2031.17 1318.4 2038.2 1321.27ZM2140.02 1362.9 2141.9 1363.67C2148.93 1366.54 2152.3 1374.57 2149.43 1381.6 2146.55 1388.63 2138.52 1392 2131.49 1389.12L2129.62 1388.36 2129.62 1388.36C2122.59 1385.48 2119.22 1377.45 2122.09 1370.42 2124.97 1363.4 2132.99 1360.03 2140.02 1362.9Z" fill="#A9A8FF" fill-rule="nonzero" fill-opacity="1"/><path d="M9.86536-9.57796 48.1772 29.8835C53.4669 35.3319 53.3383 44.037 47.8898 49.3268 42.4413 54.6165 33.7362 54.4879 28.4465 49.0394L28.4465 49.0394-9.86536 9.57796C-15.1551 4.12947-15.0264-4.5756-9.57796-9.86536-4.12947-15.1551 4.5756-15.0264 9.86536-9.57796ZM86.489 69.3449 124.425 108.419C129.714 113.867 129.586 122.572 124.137 127.862 118.689 133.152 109.984 133.023 104.694 127.575L66.7583 88.5008C61.4685 83.0523 61.5972 74.3473 67.0457 69.0575 72.4942 63.7677 81.1992 63.8964 86.489 69.3449Z" fill="#A9A8FF" fill-rule="nonzero" fill-opacity="1" transform="matrix(-1 0 0 1 2139.56 1383)"/><path d="M13.7424-0.458063 15.5746 54.5114C15.8276 62.1011 9.88002 68.4589 2.29031 68.7118-5.29939 68.9648-11.6571 63.0172-11.9101 55.4275L-13.7424 0.458063C-13.9953-7.13164-8.04776-13.4894-0.458063-13.7424 7.13164-13.9953 13.4894-8.04776 13.7424-0.458063ZM17.4069 109.481 18.8984 154.229C19.1514 161.819 13.2038 168.177 5.61413 168.43-1.97557 168.683-8.33332 162.735-8.5863 155.146L-8.5863 155.146-10.0779 110.397-10.0779 110.397C-10.3308 102.807-4.38326 96.4495 3.20644 96.1966 10.7961 95.9436 17.1539 101.891 17.4069 109.481Z" fill="#A9A8FF" fill-rule="nonzero" fill-opacity="1" transform="matrix(-1 0 0 1 2023.16 1344)"/><path d="M2.1308-13.5839 56.4664-5.06068 56.4664-5.06068C63.9686-3.88387 69.0963 3.15184 67.9195 10.654 66.7427 18.1562 59.707 23.2839 52.2048 22.1071L-2.1308 13.5839C-9.63298 12.4071-14.7607 5.37137-13.5839-2.1308-12.4071-9.63298-5.37137-14.7607 2.1308-13.5839ZM110.802 3.46254 148.225 9.33277 148.225 9.33277C155.727 10.5096 160.855 17.5453 159.678 25.0475 158.501 32.5496 151.465 37.6774 143.963 36.5006L106.54 30.6303C99.0382 29.4535 93.9104 22.4178 95.0872 14.9156 96.2641 7.41345 103.3 2.28573 110.802 3.46254Z" fill="#A9A8FF" fill-rule="nonzero" fill-opacity="1" transform="matrix(-1 0 0 1 2013.09 1334)"/><path d="M2002.24 1511.51 1962.11 1473.89C1956.57 1468.7 1956.29 1460 1961.49 1454.46 1966.68 1448.92 1975.38 1448.63 1980.92 1453.83L2021.05 1491.44C2026.59 1496.64 2026.87 1505.34 2021.67 1510.88 2016.48 1516.42 2007.78 1516.7 2002.24 1511.51ZM1921.99 1436.27 1881.86 1398.66C1876.32 1393.46 1876.04 1384.76 1881.24 1379.22 1886.43 1373.68 1895.13 1373.4 1900.67 1378.6L1940.8 1416.21C1946.34 1421.41 1946.62 1430.11 1941.42 1435.65 1936.23 1441.19 1927.53 1441.47 1921.99 1436.27Z" fill="#A9A8FF" fill-rule="nonzero" fill-opacity="1"/><path d="M1288 1027 1288 1376 1188 1336.95 1188 1078.25 1288 1027Z" stroke="#B96EFF" stroke-width="27.5" stroke-linecap="round" stroke-linejoin="round" stroke-miterlimit="10" stroke-opacity="1" fill="#FFFFFF" fill-rule="evenodd" fill-opacity="1"/><path d="M1238 1357 1238 1475.29" stroke="#B96EFF" stroke-width="27.5" stroke-linecap="round" stroke-linejoin="round" stroke-miterlimit="10" stroke-opacity="1" fill="none" fill-rule="evenodd"/><path d="M0 0 149.149 0.000360892" stroke="#B96EFF" stroke-width="27.5" stroke-linecap="round" stroke-linejoin="round" stroke-miterlimit="10" stroke-opacity="1" fill="none" fill-rule="evenodd" transform="matrix(-1 0 0 1 1312.15 1491)"/><path d="M1266 1069 1264.66 1343 1211 1321.61 1211 1097.07 1266 1069Z" fill="#B96EFF" fill-rule="evenodd" fill-opacity="1"/></g></g></svg>